<?xml version="1.0" standalone="no"?><!DOCTYPE svg PUBLIC "-//W3C//DTD SVG 1.1//EN" "http://www.w3.org/Graphics/SVG/1.1/DTD/svg11.dtd"><svg t="1713766552114" class="icon" viewBox="0 0 1024 1024" version="1.1" xmlns="http://www.w3.org/2000/svg" p-id="1482" xmlns:xlink="http://www.w3.org/1999/xlink" width="200" height="200"><path d="M227.584 384c16.32 0 29.888 11.328 32.64 26.24l0.576 5.76V576h33.152a32.64 32.64 0 0 1 33.216 32c0 15.68-11.776 28.8-27.2 31.488L293.952 640H161.28a32.64 32.64 0 0 1-33.152-32c0-15.68 11.712-28.8 27.2-31.488L161.28 576h33.216V448h-33.216a32.896 32.896 0 0 1-32.64-26.24l-0.512-5.76c0-15.68 11.712-28.8 27.2-31.488L161.28 384h66.368z m341.568 0c24.64 0 40 24.576 30.336 45.12l-2.688 4.608L498.432 576h70.72c16.32 0 29.888 11.328 32.64 26.24l0.576 5.76c0 15.68-11.776 28.8-27.2 31.488L569.152 640H436.48c-24.576 0-40-24.576-30.272-45.12l2.688-4.608L507.072 448H436.416a32.896 32.896 0 0 1-32.64-26.24l-0.512-5.76c0-15.68 11.712-28.8 27.2-31.488L436.48 384h132.736z m300.8 0c24.64 0 40 24.576 30.336 45.12l-2.688 4.608L843.52 512l54.08 78.336c13.632 19.712 0.96 45.696-22.144 49.28l-5.504 0.448H737.28a32.64 32.64 0 0 1-33.152-32c0-15.68 11.712-28.8 27.2-31.488L737.28 576h70.72l-32-46.272a31.04 31.04 0 0 1-3.008-29.888l3.072-5.568 31.872-46.272h-70.656a32.896 32.896 0 0 1-32.64-26.24l-0.512-5.76c0-15.68 11.712-28.8 27.2-31.488L737.28 384h132.736z" fill="#1296db" p-id="1483"></path><path d="M992 128a32 32 0 0 1 32 32v704a32 32 0 0 1-32 32H32a32 32 0 0 1-32-32v-704A32 32 0 0 1 32 128h960z m-64 96h-832v576h832v-576z" fill="#1296db" p-id="1484"></path></svg>